<?xml version="1.0" standalone="no"?>
<!DOCTYPE svg PUBLIC "-//W3C//DTD SVG 20010904//EN"
 "http://www.w3.org/TR/2001/REC-SVG-20010904/DTD/svg10.dtd">
<svg version="1.0" xmlns="http://www.w3.org/2000/svg"
 width="640.000000pt" height="320.000000pt" viewBox="0 0 640.000000 320.000000"
 preserveAspectRatio="xMidYMid meet">
<metadata>
Created by potrace 1.13, written by Peter Selinger 2001-2015
</metadata>
<g transform="translate(0.000000,320.000000) scale(0.100000,-0.100000)"
fill="#FFFFFF" stroke="none">
<path d="M5604 2806 c-17 -8 -38 -24 -47 -36 -34 -49 6 -95 253 -289 268 -211
361 -322 362 -430 1 -161 -154 -254 -682 -405 -448 -129 -764 -183 -1355 -231
-307 -25 -1426 -147 -1890 -206 -261 -33 -565 -81 -660 -105 -149 -37 -405
-128 -405 -144 0 -46 416 -4 1880 190 371 49 983 128 1360 175 977 122 1105
143 1381 235 275 92 406 158 505 255 103 102 119 199 54 332 -28 56 -72 108
-272 315 -249 257 -286 292 -353 325 -57 29 -95 35 -131 19z"/>
<path d="M1024 1350 c-33 -22 -118 -84 -191 -138 -179 -132 -304 -206 -587
-347 -132 -66 -242 -126 -244 -132 -2 -8 6 -13 20 -13 13 0 28 -4 34 -10 5 -5
100 -25 211 -44 352 -62 487 -96 802 -205 241 -84 284 -90 231 -33 -11 12 -20
30 -20 41 0 12 -18 68 -40 125 -81 213 -104 352 -93 563 6 142 0 170 -39 157
-19 -6 -19 -4 -4 25 9 16 16 35 16 41 0 21 -39 9 -96 -30z m-55 -235 c-52
-155 -5 -382 108 -515 14 -17 23 -30 20 -30 -2 0 -31 12 -63 26 -191 85 -419
140 -669 160 l-90 7 85 28 c193 66 424 199 556 323 38 35 70 63 71 62 1 -1 -7
-28 -18 -61z"/>
</g>
</svg>
